<svg width="506" height="835" viewBox="0 0 506 835" version="1.1" xmlns="http://www.w3.org/2000/svg" xmlns:xlink="http://www.w3.org/1999/xlink">
<title>Group</title>
<desc>Created using Figma</desc>
<g id="Canvas" transform="translate(2338 644)">
<g id="Group">
<g id="2">
<use xlink:href="#path0_fill" transform="translate(-2356 -781)"/>
</g>
<g id="0">
<use xlink:href="#path1_fill" transform="translate(-2101 -688)"/>
</g>
<g id="1">
<use xlink:href="#path2_fill" transform="translate(-2317 -397)"/>
</g>
<g id="7">
<use xlink:href="#path3_fill" transform="translate(-2076 -304)"/>
</g>
</g>
</g>
<defs>
<path id="path0_fill" d="M 247 399C 247 442 226 450 198 450C 162 450 136.5 435.5 93 433.5C 65.5 432.5 38.5 443 32.5 476L 30.5 476C 22.5 415.5 53 390.5 99 370C 159 343.5 238 325 238 236.5C 238 163.5 184.5 137 129 137C 71 137 31.5 165.5 31.5 217C 31.5 247 44.5 265.5 69.5 265.5C 88.5 265.5 108 255 108 230C 108 209.5 95 194 75.5 194C 52 194 45 217.5 45 202.5C 45 167.5 82.5 145 118.5 145C 152 145 173 165 173 221.5C 173 318 112 341 68.5 370.5C 35.5 393 10 422.5 21.5 495L 31.5 495C 38 482 46.5 477 57 477C 82 477 119.5 503 172 503C 236 503 253 465 253 399L 247 399Z"/>
<path id="path1_fill" d="M 144.5 503C 217 503 269 455 269 320C 269 185 217 137 144.5 137C 72 137 20 185 20 320C 20 455 72 503 144.5 503ZM 144.5 497C 94.5 497 85 437.5 85 320C 85 202.5 94.5 143 144.5 143C 194.5 143 204 202.5 204 320C 204 437.5 194.5 497 144.5 497Z"/>
<path id="path2_fill" d="M 125 487L 125 137L 120 137C 97.5 153 67 176.5 25 185L 25 190L 40.5 190C 62.5 190 69 197.5 69 221.5L 69 487L 25 487L 25 495L 169 495L 169 487L 125 487Z"/>
<path id="path3_fill" d="M 228.5 145L 222.5 145C 221.5 157 215.5 162.5 202.5 162.5C 176 162.5 133.5 137 87.5 137C 62 137 38.5 143.5 25 161.5L 27 145L 21 145L 11.5 237L 17.5 237C 21 200 34.5 191 64 191C 91.5 191 136 205 161 205C 182 205 203.5 195 215.5 171.5L 218 171.5C 213 208 184.5 233.5 144 272.5C 87 327 54 381 66 495L 131.5 495C 121 401.5 127 350 161 298C 197 242.5 228.5 224 228.5 145Z"/>
</defs>
</svg>
