<!DOCTYPE svg PUBLIC "-//W3C//DTD SVG 20010904//EN" "http://www.w3.org/TR/2001/REC-SVG-20010904/DTD/svg10.dtd">
<svg version="1.0" xmlns="http://www.w3.org/2000/svg" width="500px" height="700px" viewBox="0 0 5000 7000" preserveAspectRatio="xMidYMid meet">
<g id="layer1" fill="#010101" stroke="none">
 <path d="M2975 6300 c-13 -22 -18 -357 -6 -458 34 -290 126 -519 298 -739 81 -104 261 -285 275 -276 6 3 8 2 5 -4 -3 -5 35 -50 84 -99 198 -195 303 -344 330 -467 14 -64 5 -85 -19 -47 -9 14 -41 50 -70 81 -110 118 -233 142 -478 94 -216 -42 -373 -65 -445 -65 -95 0 -192 32 -223 73 -34 46 -52 86 -60 132 -14 83 -18 95 -32 95 -10 0 -13 -7 -9 -22 3 -13 12 -102 20 -198 9 -96 20 -213 25 -260 5 -47 10 -91 10 -97 0 -7 7 -13 15 -13 13 0 15 9 9 50 -4 28 -4 50 0 50 4 0 23 -16 43 -35 138 -134 450 -150 770 -40 209 73 327 99 386 85 46 -10 97 -57 97 -90 0 -11 7 -20 15 -20 12 0 15 13 15 56 0 134 -44 322 -102 438 -41 82 -59 110 -179 272 -285 386 -362 580 -384 969 -6 99 5 352 22 493 l6 52 -206 0 c-125 0 -208 -4 -212 -10z"/>
 <path d="M1210 5470 c0 -19 7 -20 145 -20 l146 0 -3 -922 c-3 -867 -4 -925 -21 -956 -31 -56 -69 -72 -174 -72 -73 0 -93 -3 -93 -14 0 -11 21 -19 80 -30 3 -1 32 -12 65 -24 108 -41 228 -105 352 -189 67 -46 127 -83 133 -83 7 0 10 367 10 1145 l0 1145 145 0 c138 0 145 1 145 20 0 20 -7 20 -465 20 -458 0 -465 0 -465 -20z"/>
 <path d="M3260 3834 c-14 -2 -56 -9 -95 -15 -129 -21 -282 -110 -373 -218 -115 -136 -196 -347 -229 -593 -20 -155 -23 -528 -4 -683 68 -574 331 -866 781 -867 417 -2 670 225 774 692 55 247 55 743 0 990 -85 382 -278 615 -560 675 -71 15 -249 27 -294 19z m216 -49 c56 -23 128 -98 158 -165 36 -81 73 -229 86 -345 7 -55 14 -282 17 -505 8 -616 -12 -861 -88 -1059 -70 -183 -212 -263 -387 -216 -134 37 -214 157 -261 393 -29 143 -41 376 -41 759 0 503 18 719 75 889 50 150 122 236 220 262 53 15 172 8 221 -13z"/>
 <path d="M1790 3084 c-89 -12 -251 -48 -310 -71 -149 -56 -282 -93 -339 -93 -48 0 -65 5 -99 30 -23 16 -48 43 -57 60 -12 23 -22 30 -45 30 -27 0 -29 -3 -37 -57 -13 -96 -8 -271 11 -343 42 -157 146 -303 279 -389 34 -23 68 -46 75 -52 7 -6 23 -16 35 -22 12 -7 74 -47 138 -89 232 -155 343 -286 415 -490 42 -121 58 -405 29 -552 -44 -233 -203 -338 -445 -292 -213 40 -372 184 -383 348 -4 64 9 80 40 46 29 -33 113 -68 164 -68 121 0 202 90 202 226 1 97 -25 144 -108 195 -35 21 -52 24 -132 24 -85 0 -94 -2 -134 -30 -28 -20 -53 -50 -73 -90 -30 -58 -31 -65 -31 -185 0 -120 2 -128 34 -203 58 -136 177 -233 346 -282 116 -34 363 -35 493 -1 119 30 204 77 284 157 128 128 171 243 172 459 0 170 -31 284 -107 395 -54 76 -160 172 -257 229 -64 38 -244 124 -320 153 -36 14 -89 36 -118 49 -29 13 -56 24 -61 24 -4 0 -57 25 -116 56 -230 118 -329 228 -366 406 -20 100 -23 139 -13 212 8 56 22 55 43 -5 36 -99 74 -143 163 -184 124 -57 264 -54 528 10 179 44 283 57 397 53 92 -3 116 -8 163 -31 82 -39 126 -117 137 -239 4 -43 10 -58 21 -58 29 0 -3 270 -48 398 -29 83 -104 171 -181 212 -78 41 -274 68 -389 54z"/>
 </g>

</svg>