<!DOCTYPE svg PUBLIC "-//W3C//DTD SVG 20010904//EN" "http://www.w3.org/TR/2001/REC-SVG-20010904/DTD/svg10.dtd">
<svg version="1.0" xmlns="http://www.w3.org/2000/svg" width="236px" height="243px" viewBox="0 0 2360 2430" preserveAspectRatio="xMidYMid meet">
<g id="layer1" fill="#010101" stroke="none">
 <path d="M722 2309 c-313 -40 -498 -241 -479 -520 6 -98 37 -172 93 -225 92 -88 247 -82 336 13 92 97 74 286 -35 359 -33 22 -56 29 -108 32 -74 5 -120 -13 -176 -66 -38 -37 -47 -25 -33 49 30 159 173 280 372 315 285 52 473 -86 528 -387 34 -184 29 -483 -10 -627 -66 -242 -262 -328 -535 -234 -107 37 -182 82 -251 150 -42 42 -58 52 -74 47 -17 -5 -20 -12 -16 -33 3 -15 38 -236 76 -492 39 -256 73 -480 76 -497 l6 -33 472 -2 471 -3 3 -32 c2 -21 9 -33 18 -33 17 0 17 4 -1 165 -17 151 -25 167 -110 210 l-60 30 -401 3 -400 3 -43 289 c-23 159 -45 298 -48 310 -8 29 11 25 64 -16 59 -46 167 -97 253 -120 93 -26 338 -26 435 0 129 33 231 90 316 175 126 126 178 276 166 476 -8 127 -27 197 -83 312 -136 276 -464 429 -822 382z"/>
 <path d="M1985 2274 c-103 -54 -134 -169 -71 -265 52 -77 150 -100 236 -53 162 88 98 334 -87 334 -26 0 -61 -7 -78 -16z"/>
 </g>

</svg>