<!DOCTYPE svg PUBLIC "-//W3C//DTD SVG 20010904//EN" "http://www.w3.org/TR/2001/REC-SVG-20010904/DTD/svg10.dtd">
<svg version="1.0" xmlns="http://www.w3.org/2000/svg" width="241px" height="246px" viewBox="0 0 2410 2460" preserveAspectRatio="xMidYMid meet">
<g id="layer1" fill="#010101" stroke="none">
 <path d="M2039 2219 c-103 -60 -120 -211 -33 -290 90 -81 231 -54 283 53 60 125 -26 258 -166 258 -30 0 -61 -8 -84 -21z"/>
 <path d="M770 2200 c0 -19 7 -20 130 -20 l130 0 0 -275 0 -275 -415 0 c-277 0 -415 -3 -415 -10 0 -6 58 -117 128 -248 71 -130 152 -280 180 -332 28 -52 152 -282 275 -510 l225 -415 176 -3 176 -2 1 720 c1 396 2 726 3 733 1 9 27 12 96 12 136 -1 165 -24 199 -158 18 -69 41 -101 41 -57 0 22 -26 204 -35 247 -5 22 -9 23 -153 25 l-147 3 0 270 0 270 133 3 c124 2 132 4 132 22 0 20 -9 20 -430 20 -423 0 -430 0 -430 -20z m260 -1317 c0 -586 -2 -694 -13 -678 -8 11 -39 67 -69 125 -54 101 -219 408 -258 480 -11 19 -93 171 -182 337 -90 166 -167 299 -172 296 -5 -4 -6 -1 -2 5 4 6 -7 35 -24 65 -16 29 -30 57 -30 60 0 4 169 7 375 7 l375 0 0 -697z"/>
 </g>

</svg>