<!DOCTYPE svg PUBLIC "-//W3C//DTD SVG 20010904//EN" "http://www.w3.org/TR/2001/REC-SVG-20010904/DTD/svg10.dtd">
<svg version="1.0" xmlns="http://www.w3.org/2000/svg" width="181px" height="237px" viewBox="0 0 1810 2370" preserveAspectRatio="xMidYMid meet">
<g id="layer1" fill="#000000" stroke="none">
 <path d="M1419 2202 c-55 -35 -79 -82 -79 -152 0 -61 16 -96 64 -138 85 -74 224 -44 275 60 26 54 26 100 2 154 -29 63 -81 97 -155 102 -54 3 -66 0 -107 -26z"/>
 <path d="M190 2190 c0 -19 7 -20 135 -20 l135 0 0 -831 c0 -584 -3 -843 -11 -875 -18 -72 -58 -95 -169 -102 -89 -5 -115 -16 -62 -27 117 -25 320 -123 462 -224 47 -34 91 -61 97 -61 10 0 13 217 13 1060 l0 1060 135 0 c128 0 135 1 135 20 0 20 -7 20 -435 20 -428 0 -435 0 -435 -20z"/>
 </g>

</svg>