<!DOCTYPE svg PUBLIC "-//W3C//DTD SVG 20010904//EN" "http://www.w3.org/TR/2001/REC-SVG-20010904/DTD/svg10.dtd">
<svg version="1.0" xmlns="http://www.w3.org/2000/svg" width="226px" height="239px" viewBox="0 0 2260 2390" preserveAspectRatio="xMidYMid meet">
<g id="layer1" fill="#010101" stroke="none">
 <path d="M680 2300 c-90 -11 -144 -26 -225 -65 -175 -83 -265 -228 -265 -424 0 -191 78 -306 218 -318 114 -10 206 39 249 134 50 108 13 243 -81 298 -90 53 -196 42 -268 -25 -23 -22 -43 -40 -46 -40 -3 0 -2 25 1 55 29 278 426 443 717 297 149 -74 218 -215 227 -462 9 -230 -33 -379 -138 -494 -70 -77 -199 -135 -299 -136 -54 0 -81 -11 -78 -29 3 -12 20 -17 83 -22 211 -16 322 -101 361 -276 24 -111 16 -343 -17 -430 -52 -142 -144 -213 -287 -221 -132 -7 -266 36 -353 115 -52 47 -79 101 -86 170 -6 53 -5 55 14 45 11 -6 26 -18 33 -27 8 -9 32 -26 54 -37 130 -67 279 32 280 186 0 106 -57 181 -157 207 -123 30 -234 -27 -279 -146 -56 -143 -18 -306 94 -411 210 -197 717 -191 923 11 168 164 164 474 -8 653 -65 68 -191 134 -300 157 -32 6 -27 25 6 25 72 0 232 62 313 121 239 174 303 538 139 786 -149 224 -476 344 -825 303z"/>
 <path d="M1950 2269 c-32 -13 -78 -56 -96 -91 -31 -60 -9 -162 48 -215 49 -46 125 -55 194 -24 107 49 138 190 61 278 -17 20 -46 42 -64 49 -37 16 -107 17 -143 3z"/>
 </g>

</svg>