<!DOCTYPE svg PUBLIC "-//W3C//DTD SVG 20010904//EN" "http://www.w3.org/TR/2001/REC-SVG-20010904/DTD/svg10.dtd">
<svg version="1.0" xmlns="http://www.w3.org/2000/svg" width="241px" height="237px" viewBox="0 0 2410 2370" preserveAspectRatio="xMidYMid meet">
<g id="layer1" fill="#010101" stroke="none">
 <path d="M1070 2263 c-86 -9 -200 -37 -356 -89 -251 -83 -298 -83 -373 2 -40 46 -74 56 -86 27 -3 -10 -9 -63 -12 -118 -9 -167 22 -307 94 -415 67 -101 120 -144 403 -325 129 -82 204 -149 276 -245 108 -143 154 -302 154 -530 0 -160 -17 -250 -61 -326 -73 -128 -216 -172 -404 -124 -170 44 -290 156 -310 293 -4 26 -4 54 -1 63 5 14 10 13 39 -8 55 -43 94 -58 146 -58 55 0 105 15 97 29 -3 5 2 8 11 7 9 0 30 18 47 42 26 37 31 54 34 115 3 61 0 79 -21 117 -65 122 -253 147 -353 46 -52 -51 -74 -120 -74 -225 0 -230 133 -391 375 -456 80 -22 253 -30 341 -16 335 52 523 261 524 584 0 219 -86 396 -255 525 -81 61 -269 156 -470 237 -246 99 -382 187 -456 295 -56 82 -72 137 -77 279 -5 141 4 153 43 57 59 -145 193 -208 399 -186 110 11 157 20 301 56 94 23 132 28 260 28 138 1 153 -1 193 -22 75 -40 122 -132 122 -237 0 -24 5 -35 15 -35 18 0 20 70 5 187 -34 253 -142 382 -349 419 -72 13 -145 15 -221 7z"/>
 <path d="M1992 2223 c-131 -64 -130 -264 1 -324 108 -49 224 6 257 122 13 42 5 82 -26 135 -42 73 -154 106 -232 67z"/>
 </g>

</svg>